<?xml version="1.0" encoding="UTF-8"?>
<svg id="Layer_1" data-name="Layer 1" xmlns="http://www.w3.org/2000/svg" xmlns:xlink="http://www.w3.org/1999/xlink" viewBox="0 0 633.63 663.53">
  <defs>
    <style>
      .cls-1 {
        fill: url(#linear-gradient);
      }
    </style>
    <linearGradient id="linear-gradient" x1="-245.05" y1="-1781.23" x2="345.26" y2="-1781.25" gradientTransform="translate(274 -1449.47) scale(1 -1)" gradientUnits="userSpaceOnUse">
      <stop offset="0" stop-color="#eb7444"/>
      <stop offset=".32" stop-color="#c75879"/>
      <stop offset=".64" stop-color="#8e4e97"/>
      <stop offset="1" stop-color="#2993bf"/>
    </linearGradient>
  </defs>
  <path class="cls-1" d="M276.61,389.49h93.3c-12.01-96.16,7.18-202.08,63.07-282.13,7.51-10.75,33.11-43.19,43.78-47.8,12.15-5.24,28.33,1.71,30.43,15.35,3.02,19.51-12.26,25.58-22.82,38.05-36.59,43.26-58.79,98.28-68.19,154.02-1.44,8.52-1.32,17.51-3.88,25.78,51.69,4.78,105.93,7.01,156.06,21.22,21.83,6.19,70.48,22.46,53.52,53.52-11.55,21.14-62.8,32.31-85.43,36.71-38.2,7.41-78.54,10.82-117.37,12.42,11.47,48.4,30.33,93.84,61.1,133.11,6.99,8.92,24.12,22.54,23.61,33.82-.68,15.54-18.76,27.09-32.77,19.44-3.82-2.09-17-16.01-20.59-20.12-39.47-44.9-62.64-104.88-75.67-162.66l-103.24-1.92c-11.65,58.9-35.78,119.05-75.47,164.58-11.33,12.99-28.97,33.84-46.55,15.96-18.52-18.85,6.11-35.4,16.79-49.11,30.77-39.47,49.75-84.46,61.1-133.11-49.26-3.49-101.86-6.84-149.28-21.22-20.53-6.23-66.11-23.05-48.94-52.33,13.94-23.8,78.25-35.74,104.34-39.85,31.57-4.97,64.46-7.79,96.42-8.75l4.05-2.68c-7.72-64.88-29.43-128.66-71.87-178.86-10.16-12.01-24.87-17.96-22.97-36.47,1.49-14.62,17.62-22.51,30.58-16.93,10.75,4.65,36.18,37,43.78,47.8,55.89,79.4,75.25,186.54,63.07,282.13l.02.02ZM235.9,323.34c-37.49,3.16-75.21,5.65-112.28,12.4-16.06,2.93-48.96,9.19-61.95,17.74-1.59,1.05-3.07-.22-2.19,3.77,54.55,22.44,114.87,24.77,173.01,30.57l3.39-64.48h.02ZM592.12,353.9c-57.44-22.65-120.42-25.95-181.5-30.57l3.39,64.48c38.05-2.9,76.4-5.56,113.97-12.42,16.05-2.92,48.96-9.19,61.95-17.74,1.59-1.05,3.07.22,2.19-3.77v.02Z"/>
</svg>